<?xml version="1.0" encoding="UTF-8"?>
<svg width="459.667" height="328" viewBox="0 0 459.667 328" xmlns="http://www.w3.org/2000/svg">
<defs>
  <style>
    .station { fill: #2563eb; stroke: #1e40af; stroke-width: 2; }
    .station-id { font-family: Arial, sans-serif; font-size: 12px; fill: white; text-anchor: middle; dominant-baseline: central; }
    .edge { stroke: #6b7280; stroke-width: 2; }
    .background { fill: #f8fafc; }
  </style>
</defs>
<rect class="background" width="459.667" height="328"/>
<!-- Edges -->
<line class="edge" x1="93" y1="50" x2="50" y2="101"/>
<line class="edge" x1="93" y1="50" x2="121" y2="101"/>
<line class="edge" x1="93" y1="50" x2="121" y2="134"/>
<line class="edge" x1="50" y1="101" x2="50" y2="165"/>
<line class="edge" x1="50" y1="165" x2="50" y2="278"/>
<line class="edge" x1="50" y1="278" x2="121" y2="233.333"/>
<line class="edge" x1="121" y1="233.333" x2="163" y2="233.333"/>
<line class="edge" x1="121" y1="233.333" x2="257.667" y2="50"/>
<line class="edge" x1="163" y1="233.333" x2="121" y2="134"/>
<line class="edge" x1="121" y1="101" x2="121" y2="134"/>
<line class="edge" x1="121" y1="134" x2="227" y2="160"/>
<line class="edge" x1="121" y1="134" x2="257.667" y2="50"/>
<line class="edge" x1="227" y1="160" x2="257.667" y2="165"/>
<line class="edge" x1="227" y1="160" x2="348" y2="106"/>
<line class="edge" x1="348" y1="106" x2="257.667" y2="50"/>
<line class="edge" x1="348" y1="106" x2="409.667" y2="134"/>
<line class="edge" x1="257.667" y1="50" x2="348" y2="233.333"/>
<line class="edge" x1="348" y1="233.333" x2="409.667" y2="278"/>
<line class="edge" x1="409.667" y1="278" x2="409.667" y2="233.333"/>
<line class="edge" x1="409.667" y1="233.333" x2="409.667" y2="134"/>
<!-- Stations -->
<circle class="station" cx="93" cy="50" r="15"/>
<text class="station-id" x="93" y="50">57</text>
<circle class="station" cx="50" cy="101" r="15"/>
<text class="station-id" x="50" y="101">58</text>
<circle class="station" cx="50" cy="165" r="15"/>
<text class="station-id" x="50" y="165">59</text>
<circle class="station" cx="50" cy="278" r="15"/>
<text class="station-id" x="50" y="278">60</text>
<circle class="station" cx="121" cy="233.333" r="15"/>
<text class="station-id" x="121" y="233.333">61</text>
<circle class="station" cx="163" cy="233.333" r="15"/>
<text class="station-id" x="163" y="233.333">62</text>
<circle class="station" cx="121" cy="101" r="15"/>
<text class="station-id" x="121" y="101">63</text>
<circle class="station" cx="121" cy="134" r="15"/>
<text class="station-id" x="121" y="134">64</text>
<circle class="station" cx="227" cy="160" r="15"/>
<text class="station-id" x="227" y="160">65</text>
<circle class="station" cx="257.667" cy="165" r="15"/>
<text class="station-id" x="257.667" y="165">66</text>
<circle class="station" cx="348" cy="106" r="15"/>
<text class="station-id" x="348" y="106">67</text>
<circle class="station" cx="257.667" cy="50" r="15"/>
<text class="station-id" x="257.667" y="50">68</text>
<circle class="station" cx="348" cy="233.333" r="15"/>
<text class="station-id" x="348" y="233.333">69</text>
<circle class="station" cx="409.667" cy="278" r="15"/>
<text class="station-id" x="409.667" y="278">70</text>
<circle class="station" cx="409.667" cy="233.333" r="15"/>
<text class="station-id" x="409.667" y="233.333">71</text>
<circle class="station" cx="409.667" cy="134" r="15"/>
<text class="station-id" x="409.667" y="134">72</text>
<text x="229.833" y="25" style="font-family: Arial, sans-serif; font-size: 18px; font-weight: bold; text-anchor: middle; fill: #1f2937;">Metro Map Visualization</text>
<text x="10" y="318" style="font-family: Arial, sans-serif; font-size: 10px; fill: #6b7280;">Coordinate range: X[574, 933.667], Y[958, 1186]</text>
</svg>
