<?xml version="1.0" encoding="UTF-8"?>
<svg width="429.167" height="322" viewBox="0 0 429.167 322" xmlns="http://www.w3.org/2000/svg">
<defs>
  <style>
    .station { fill: #2563eb; stroke: #1e40af; stroke-width: 2; }
    .station-id { font-family: Arial, sans-serif; font-size: 12px; fill: white; text-anchor: middle; dominant-baseline: central; }
    .edge { stroke: #6b7280; stroke-width: 2; }
    .background { fill: #f8fafc; }
  </style>
</defs>
<rect class="background" width="429.167" height="322"/>
<!-- Edges -->
<line class="edge" x1="98.375" y1="50" x2="50" y2="84"/>
<line class="edge" x1="98.375" y1="50" x2="98.375" y2="84"/>
<line class="edge" x1="98.375" y1="50" x2="145.833" y2="132.583"/>
<line class="edge" x1="50" y1="84" x2="50" y2="132.583"/>
<line class="edge" x1="50" y1="132.583" x2="50" y2="231.5"/>
<line class="edge" x1="50" y1="231.5" x2="98.375" y2="231.5"/>
<line class="edge" x1="98.375" y1="231.5" x2="145.833" y2="231.5"/>
<line class="edge" x1="98.375" y1="231.5" x2="301.333" y2="50"/>
<line class="edge" x1="145.833" y1="231.5" x2="145.833" y2="132.583"/>
<line class="edge" x1="98.375" y1="84" x2="145.833" y2="132.583"/>
<line class="edge" x1="145.833" y1="132.583" x2="223.333" y2="132.583"/>
<line class="edge" x1="145.833" y1="132.583" x2="301.333" y2="50"/>
<line class="edge" x1="223.333" y1="132.583" x2="265.667" y2="132.583"/>
<line class="edge" x1="223.333" y1="132.583" x2="379.167" y2="132.583"/>
<line class="edge" x1="379.167" y1="132.583" x2="301.333" y2="50"/>
<line class="edge" x1="379.167" y1="132.583" x2="379.167" y2="132.583"/>
<line class="edge" x1="301.333" y1="50" x2="301.333" y2="231.5"/>
<line class="edge" x1="301.333" y1="231.5" x2="379.167" y2="272"/>
<line class="edge" x1="379.167" y1="272" x2="379.167" y2="231.5"/>
<line class="edge" x1="379.167" y1="231.5" x2="379.167" y2="132.583"/>
<!-- Stations -->
<circle class="station" cx="98.375" cy="50" r="15"/>
<text class="station-id" x="98.375" y="50">57</text>
<circle class="station" cx="50" cy="84" r="15"/>
<text class="station-id" x="50" y="84">58</text>
<circle class="station" cx="50" cy="132.583" r="15"/>
<text class="station-id" x="50" y="132.583">59</text>
<circle class="station" cx="50" cy="231.5" r="15"/>
<text class="station-id" x="50" y="231.5">60</text>
<circle class="station" cx="98.375" cy="231.5" r="15"/>
<text class="station-id" x="98.375" y="231.5">61</text>
<circle class="station" cx="145.833" cy="231.5" r="15"/>
<text class="station-id" x="145.833" y="231.5">62</text>
<circle class="station" cx="98.375" cy="84" r="15"/>
<text class="station-id" x="98.375" y="84">63</text>
<circle class="station" cx="145.833" cy="132.583" r="15"/>
<text class="station-id" x="145.833" y="132.583">64</text>
<circle class="station" cx="223.333" cy="132.583" r="15"/>
<text class="station-id" x="223.333" y="132.583">65</text>
<circle class="station" cx="265.667" cy="132.583" r="15"/>
<text class="station-id" x="265.667" y="132.583">66</text>
<circle class="station" cx="379.167" cy="132.583" r="15"/>
<text class="station-id" x="379.167" y="132.583">67</text>
<circle class="station" cx="301.333" cy="50" r="15"/>
<text class="station-id" x="301.333" y="50">68</text>
<circle class="station" cx="301.333" cy="231.5" r="15"/>
<text class="station-id" x="301.333" y="231.5">69</text>
<circle class="station" cx="379.167" cy="272" r="15"/>
<text class="station-id" x="379.167" y="272">70</text>
<circle class="station" cx="379.167" cy="231.5" r="15"/>
<text class="station-id" x="379.167" y="231.5">71</text>
<circle class="station" cx="379.167" cy="132.583" r="15"/>
<text class="station-id" x="379.167" y="132.583">72</text>
<text x="214.583" y="25" style="font-family: Arial, sans-serif; font-size: 18px; font-weight: bold; text-anchor: middle; fill: #1f2937;">Metro Map Visualization</text>
<text x="10" y="312" style="font-family: Arial, sans-serif; font-size: 10px; fill: #6b7280;">Coordinate range: X[577.667, 906.833], Y[975, 1197]</text>
</svg>
